# xmcd
#
# Track frame offsets:
#	150
#	23303
#	36248
#	52513
#	69098
#	85710
#	110368
#	130218
#	153760
#	180780
#	194820
#	217028
#	235813
#	250595
#
# Disc length: 3600
#
# Revision: 1
# Processed by: cddbd v1.5.1PL0 Copyright (c) Steve Scherf et al.
# Submitted via: Nero 5.5.9.0
# Normalized: r0:DSETVAR1
#
DISCID=a00e0e0e
DTITLE=Various Artist - Lost Highway New Music Sampler Volume 3
DYEAR=1900
DGENRE=
TTITLE0=Tift Merrit - Trouble Over Me
TTITLE1=Ryan Adams - Firecracker
TTITLE2=Soggy Bottom Boys - In The Jailhouse Now
TTITLE3=Kim Richey - Good Day Here
TTITLE4=Beck - Your Cheatin' Heart
TTITLE5=Lucinda Williams - Are You Down
TTITLE6=Willie Nelson - Maria (Shut Up And Kiss Me)
TTITLE7=Isaac Freeman - Standing On The Highway
TTITLE8=William Topley - Magnolia
TTITLE9=The Cox Family - Will There Be Any Stars In My Crown
TTITLE10=David Baerwald - Why
TTITLE11=Robert Earl Keen - Not A Drop Of Rain
TTITLE12=Whiskeytown - Mirror, Mirror
TTITLE13=Drive-By Truckers - Let There Be Rock
EXTD=
EXTT0=
EXTT1=
EXTT2=
EXTT3=
EXTT4=
EXTT5=
EXTT6=
EXTT7=
EXTT8=
EXTT9=
EXTT10=
EXTT11=
EXTT12=
EXTT13=
PLAYORDER=
